<?xml version="1.0" encoding="utf-8"?>
<!-- Generator: Adobe Illustrator 18.1.1, SVG Export Plug-In . SVG Version: 6.00 Build 0)  -->
<svg version="1.1" id="Layer_1" xmlns="http://www.w3.org/2000/svg" xmlns:xlink="http://www.w3.org/1999/xlink" x="0px" y="0px"
	 viewBox="0 0 458 100" enable-background="new 0 0 458 100" xml:space="preserve">
<g>
	<g>
		<path fill="#606060" d="M97.5,50l-15-27H28.3c-3.2,0-5.8,2.6-5.8,5.8v42.4c0,3.2,2.6,5.8,5.8,5.8h54.2L97.5,50z"/>
		<path fill="#BB0E3D" d="M96,25.8c-1.1-1.7-3-2.8-5-2.8h-4.5l15.2,27L86.5,77H91c2.1,0,4-1.1,5-2.8L109.5,50L96,25.8z"/>
	</g>
	<g>
		<rect x="54.5" y="38" fill="#FFFFFF" width="4" height="24"/>
		<polygon fill="#FFFFFF" points="46.5,38 46.5,55.6 35.5,38 31.5,38 31.5,62 35.5,62 35.5,44.4 46.5,62 50.5,62 50.5,38 		"/>
		<polygon fill="#FFFFFF" points="77.5,38 77.5,48 66.5,48 66.5,38 62.5,38 62.5,62 66.5,62 66.5,52 77.5,52 77.5,62 81.5,62 
			81.5,38 		"/>
	</g>
</g>
<g>
	<g>
		<path fill="#BB0E3D" d="M130.4,31h2.5v11.2h-2.5l-5.3-7v7h-2.5V31h2.3l5.5,7.2V31z"/>
		<path fill="#BB0E3D" d="M143.6,42.2l-1-2.4h-4.7l-1,2.4h-2.7L139,31h2.4l4.8,11.2H143.6z M140.2,34.3l-1.4,3.2h2.8L140.2,34.3z"/>
		<path fill="#BB0E3D" d="M151.5,33.1v9H149v-9h-3.2V31h8.8v2.2H151.5z"/>
		<path fill="#BB0E3D" d="M156.4,31h2.5v11.2h-2.5V31z"/>
		<path fill="#BB0E3D" d="M171.1,40.6c-1.1,1.1-2.5,1.7-4.2,1.7s-3-0.6-4.2-1.7c-1.1-1.1-1.7-2.5-1.7-4.1s0.6-3,1.7-4.1
			c1.1-1.1,2.5-1.7,4.2-1.7s3,0.6,4.2,1.7c1.1,1.1,1.7,2.5,1.7,4.1S172.2,39.5,171.1,40.6z M170.3,36.5c0-1-0.3-1.8-1-2.6
			s-1.4-1.1-2.4-1.1c-0.9,0-1.7,0.4-2.4,1.1c-0.6,0.7-1,1.6-1,2.6c0,1,0.3,1.8,1,2.5c0.6,0.7,1.4,1,2.4,1c0.9,0,1.7-0.3,2.4-1
			C169.9,38.4,170.3,37.5,170.3,36.5z"/>
		<path fill="#BB0E3D" d="M182.7,31h2.5v11.2h-2.5l-5.3-7v7h-2.5V31h2.3l5.5,7.2V31z"/>
		<path fill="#BB0E3D" d="M196,42.2l-1-2.4h-4.7l-1,2.4h-2.7l4.8-11.2h2.4l4.8,11.2H196z M192.6,34.3l-1.4,3.2h2.8L192.6,34.3z"/>
		<path fill="#BB0E3D" d="M199.9,42.2V31h2.5v9h4.8v2.2H199.9z"/>
		<path fill="#BB0E3D" d="M218.4,40c1.2,0,2.2-0.5,3-1.5l1.6,1.6c-1.3,1.4-2.8,2.1-4.5,2.1s-3.1-0.5-4.3-1.6s-1.7-2.5-1.7-4.1
			c0-1.7,0.6-3,1.7-4.2c1.1-1.1,2.5-1.7,4.2-1.7c1.8,0,3.4,0.7,4.6,2.1l-1.6,1.8c-0.8-1-1.8-1.5-2.9-1.5c-0.9,0-1.7,0.3-2.4,0.9
			s-1,1.4-1,2.5s0.3,1.9,0.9,2.5C216.7,39.6,217.5,40,218.4,40z"/>
		<path fill="#BB0E3D" d="M232.8,42.2l-1-2.4h-4.7l-1,2.4h-2.7l4.8-11.2h2.4l4.8,11.2H232.8z M229.4,34.3l-1.4,3.2h2.8L229.4,34.3z"
			/>
		<path fill="#BB0E3D" d="M244.6,31h2.5v11.2h-2.5l-5.3-7v7h-2.5V31h2.3l5.5,7.2V31z"/>
		<path fill="#BB0E3D" d="M255,40c1.2,0,2.2-0.5,3-1.5l1.6,1.6c-1.3,1.4-2.8,2.1-4.5,2.1s-3.1-0.5-4.3-1.6s-1.7-2.5-1.7-4.1
			c0-1.7,0.6-3,1.7-4.2c1.1-1.1,2.5-1.7,4.2-1.7c1.8,0,3.4,0.7,4.6,2.1l-1.6,1.8c-0.8-1-1.8-1.5-2.9-1.5c-0.9,0-1.7,0.3-2.4,0.9
			s-1,1.4-1,2.5s0.3,1.9,0.9,2.5C253.3,39.6,254.1,40,255,40z"/>
		<path fill="#BB0E3D" d="M269.6,31v2.2H264v2.3h5v2.1h-5V40h5.7v2.2h-8.2V31H269.6z"/>
		<path fill="#BB0E3D" d="M281.1,34.7c0,1.8-0.7,2.9-2.1,3.5l2.8,4h-3.1l-2.5-3.6h-1.7v3.6H272V31h4.2c1.7,0,3,0.3,3.7,0.9
			C280.7,32.4,281.1,33.4,281.1,34.7z M278.1,36c0.3-0.3,0.5-0.7,0.5-1.3s-0.2-1-0.5-1.2c-0.3-0.2-0.9-0.3-1.7-0.3h-1.9v3.3h1.8
			C277.2,36.4,277.8,36.3,278.1,36z"/>
		<path fill="#BB0E3D" d="M287.9,31h2.5v11.2h-2.5V31z"/>
		<path fill="#BB0E3D" d="M300.9,31h2.5v11.2h-2.5l-5.3-7v7h-2.5V31h2.3l5.5,7.2V31z"/>
		<path fill="#BB0E3D" d="M308.8,33.2c-0.2,0.2-0.4,0.5-0.4,0.8s0.1,0.6,0.4,0.8c0.3,0.2,1,0.4,2,0.7c1.1,0.3,1.9,0.7,2.5,1.2
			c0.6,0.5,0.9,1.3,0.9,2.3s-0.4,1.8-1.1,2.4s-1.7,0.9-3,0.9c-1.8,0-3.4-0.7-4.8-2l1.5-1.8c1.2,1.1,2.3,1.6,3.3,1.6
			c0.5,0,0.8-0.1,1.1-0.3s0.4-0.5,0.4-0.8s-0.1-0.6-0.4-0.8s-0.8-0.4-1.6-0.6c-1.3-0.3-2.3-0.7-2.9-1.2s-0.9-1.3-0.9-2.3
			s0.4-1.9,1.1-2.5c0.8-0.6,1.7-0.9,2.9-0.9c0.7,0,1.5,0.1,2.2,0.4s1.4,0.6,2,1.1l-1.3,1.8c-1-0.7-2-1.1-3-1.1
			C309.4,32.9,309,33,308.8,33.2z"/>
		<path fill="#BB0E3D" d="M321,33.1v9h-2.5v-9h-3.2V31h8.8v2.2H321z"/>
		<path fill="#BB0E3D" d="M326,31h2.5v11.2H326V31z"/>
		<path fill="#BB0E3D" d="M336,33.1v9h-2.5v-9h-3.2V31h8.8v2.2H336z"/>
		<path fill="#BB0E3D" d="M344,39.3c0.4,0.5,1,0.8,1.7,0.8s1.3-0.3,1.7-0.8s0.6-1.2,0.6-2.1V31h2.5v6.3c0,1.6-0.4,2.9-1.3,3.7
			c-0.9,0.9-2,1.3-3.4,1.3c-1.4,0-2.5-0.4-3.4-1.3c-0.9-0.9-1.4-2.1-1.4-3.7V31h2.5v6.2C343.3,38.1,343.5,38.8,344,39.3z"/>
		<path fill="#BB0E3D" d="M357.8,33.1v9h-2.5v-9h-3.2V31h8.8v2.2H357.8z"/>
		<path fill="#BB0E3D" d="M370.8,31v2.2h-5.6v2.3h5v2.1h-5V40h5.7v2.2h-8.2V31H370.8z"/>
	</g>
</g>
<g>
	<g>
		<path fill="#606060" d="M125.9,57.3c-0.3,0.3-0.5,0.6-0.5,1c0,0.4,0.2,0.8,0.6,1c0.4,0.3,1.3,0.5,2.7,0.9c1.4,0.3,2.5,0.9,3.2,1.5
			c0.8,0.7,1.2,1.7,1.2,3c0,1.3-0.5,2.4-1.5,3.2c-1,0.8-2.3,1.2-3.9,1.2c-2.3,0-4.4-0.9-6.3-2.6l2-2.4c1.6,1.4,3,2.1,4.4,2.1
			c0.6,0,1.1-0.1,1.4-0.4c0.3-0.3,0.5-0.6,0.5-1.1c0-0.4-0.2-0.8-0.5-1c-0.4-0.3-1.1-0.5-2.2-0.8c-1.7-0.4-3-0.9-3.7-1.6
			c-0.8-0.7-1.2-1.7-1.2-3.1c0-1.4,0.5-2.5,1.5-3.2c1-0.8,2.2-1.1,3.7-1.1c1,0,2,0.2,2.9,0.5c1,0.3,1.8,0.8,2.6,1.4l-1.7,2.4
			c-1.3-1-2.6-1.4-3.9-1.4C126.7,56.9,126.3,57,125.9,57.3z"/>
		<path fill="#606060" d="M142.3,69h-6.4V54.3h5.7c1,0,1.9,0.1,2.6,0.4c0.7,0.2,1.3,0.6,1.6,1c0.7,0.8,1,1.6,1,2.6
			c0,1.1-0.4,2-1.1,2.6c-0.3,0.2-0.4,0.3-0.5,0.4c-0.1,0-0.3,0.1-0.5,0.2c0.9,0.2,1.6,0.6,2.2,1.2s0.8,1.4,0.8,2.3
			c0,1-0.4,1.9-1,2.7C145.8,68.5,144.4,69,142.3,69z M139.2,60.3h1.6c0.9,0,1.6-0.1,2-0.3c0.4-0.2,0.7-0.6,0.7-1.3
			c0-0.7-0.2-1.1-0.6-1.3s-1.1-0.3-2.1-0.3h-1.6V60.3z M139.2,66.2h2.2c0.9,0,1.6-0.1,2.1-0.3c0.5-0.2,0.7-0.7,0.7-1.4
			s-0.2-1.1-0.7-1.3c-0.5-0.2-1.3-0.3-2.4-0.3h-1.9V66.2z"/>
		<path fill="#606060" d="M150.4,54.3h3.3V69h-3.3V54.3z"/>
		<path fill="#606060" d="M169.2,59.2c0,2.4-0.9,3.9-2.8,4.6l3.7,5.2h-4l-3.3-4.7h-2.3V69h-3.3V54.3h5.6c2.3,0,3.9,0.4,4.9,1.2
			C168.7,56.2,169.2,57.5,169.2,59.2z M165.2,60.9c0.4-0.4,0.6-0.9,0.6-1.7c0-0.8-0.2-1.3-0.6-1.6s-1.2-0.4-2.2-0.4h-2.5v4.3h2.4
			C164.1,61.5,164.8,61.3,165.2,60.9z"/>
		<path fill="#606060" d="M189.3,56.2c1.4,1.3,2.1,3.1,2.1,5.3c0,2.3-0.7,4.1-2,5.4c-1.4,1.3-3.4,2-6.2,2h-5V54.3h5.2
			C185.9,54.3,187.9,55,189.3,56.2z M186.9,65c0.8-0.8,1.2-1.9,1.2-3.3c0-1.4-0.4-2.6-1.2-3.3c-0.8-0.8-2-1.2-3.7-1.2h-1.8v8.9h2.1
			C184.9,66.1,186.1,65.7,186.9,65z"/>
		<path fill="#606060" d="M203.7,67.4c-1.3,1.2-2.8,1.8-4.5,1.8s-3.1-0.5-4.3-1.6c-1.1-1.1-1.7-2.5-1.7-4.3s0.6-3.2,1.7-4.2
			s2.5-1.6,4-1.6c1.6,0,2.9,0.5,4,1.4c1.1,0.9,1.6,2.2,1.6,3.9v1.7h-8.2c0.1,0.6,0.4,1.1,1,1.5c0.5,0.4,1.2,0.6,1.8,0.6
			c1.1,0,2-0.4,2.7-1.1L203.7,67.4z M200.7,60.7c-0.4-0.4-1-0.5-1.6-0.5c-0.6,0-1.2,0.2-1.7,0.6c-0.5,0.4-0.8,0.9-0.9,1.5h5
			C201.4,61.5,201.1,61,200.7,60.7z"/>
		<path fill="#606060" d="M209.8,69l-4.5-11.3h3.3l2.8,7.1l2.8-7.1h3.3L213,69H209.8z"/>
		<path fill="#606060" d="M228.8,67.4c-1.3,1.2-2.8,1.8-4.5,1.8s-3.1-0.5-4.3-1.6c-1.1-1.1-1.7-2.5-1.7-4.3s0.6-3.2,1.7-4.2
			s2.5-1.6,4-1.6c1.6,0,2.9,0.5,4,1.4c1.1,0.9,1.6,2.2,1.6,3.9v1.7h-8.2c0.1,0.6,0.4,1.1,1,1.5c0.5,0.4,1.2,0.6,1.8,0.6
			c1.1,0,2-0.4,2.7-1.1L228.8,67.4z M225.8,60.7c-0.4-0.4-1-0.5-1.6-0.5c-0.6,0-1.2,0.2-1.7,0.6c-0.5,0.4-0.8,0.9-0.9,1.5h5
			C226.5,61.5,226.2,61,225.8,60.7z"/>
		<path fill="#606060" d="M235.2,69H232V53.4h3.1V69z"/>
		<path fill="#606060" d="M249.4,63.4c0,1.6-0.6,3-1.7,4.1c-1.1,1.1-2.6,1.7-4.3,1.7s-3.1-0.6-4.3-1.7s-1.7-2.5-1.7-4.1
			c0-1.6,0.6-3,1.7-4.1c1.1-1.1,2.6-1.7,4.3-1.7s3.1,0.6,4.3,1.7C248.9,60.3,249.4,61.7,249.4,63.4z M240.7,63.4
			c0,0.9,0.3,1.7,0.8,2.3c0.5,0.6,1.2,0.9,2,0.9s1.5-0.3,2-0.9s0.8-1.3,0.8-2.3c0-0.9-0.3-1.7-0.8-2.3s-1.2-0.9-2-0.9
			s-1.5,0.3-2,0.9C240.9,61.7,240.7,62.4,240.7,63.4z"/>
		<path fill="#606060" d="M258.3,57.5c1.3,0,2.5,0.5,3.5,1.6c1,1.1,1.5,2.5,1.5,4.1c0,1.7-0.5,3.1-1.5,4.2s-2.2,1.7-3.6,1.7
			c-1.4,0-2.5-0.6-3.3-1.7v5.6h-3.1V57.7h3.1V59C255.9,58,257,57.5,258.3,57.5z M254.9,63.4c0,0.9,0.3,1.7,0.8,2.2
			c0.5,0.6,1.1,0.9,1.9,0.9c0.7,0,1.4-0.3,1.9-0.9c0.5-0.6,0.8-1.3,0.8-2.2s-0.3-1.7-0.8-2.3c-0.5-0.6-1.2-0.9-1.9-0.9
			c-0.7,0-1.4,0.3-1.9,0.9C255.1,61.7,254.9,62.4,254.9,63.4z"/>
		<path fill="#606060" d="M276.1,62.9V69H273v-6.2c0-0.9-0.1-1.6-0.4-2c-0.3-0.4-0.7-0.6-1.3-0.6s-1.1,0.2-1.6,0.7
			c-0.5,0.5-0.7,1.1-0.7,2V69h-3.1V57.7h3.1V59c0.9-1,1.9-1.5,3-1.5c0.7,0,1.4,0.2,1.9,0.6c0.6,0.4,1,0.9,1.3,1.5
			c0.4-0.7,1-1.2,1.8-1.6c0.7-0.4,1.5-0.6,2.2-0.6c1.3,0,2.4,0.4,3.2,1.2c0.8,0.8,1.2,1.9,1.2,3.4V69h-3.2v-6.2
			c0-1.7-0.6-2.6-1.9-2.6c-0.6,0-1.2,0.2-1.6,0.7C276.4,61.4,276.1,62,276.1,62.9z"/>
		<path fill="#606060" d="M296.2,67.4c-1.3,1.2-2.8,1.8-4.5,1.8s-3.1-0.5-4.3-1.6c-1.1-1.1-1.7-2.5-1.7-4.3s0.6-3.2,1.7-4.2
			s2.5-1.6,4-1.6c1.6,0,2.9,0.5,4,1.4c1.1,0.9,1.6,2.2,1.6,3.9v1.7h-8.2c0.1,0.6,0.4,1.1,1,1.5c0.5,0.4,1.2,0.6,1.8,0.6
			c1.1,0,2-0.4,2.7-1.1L296.2,67.4z M293.2,60.7c-0.4-0.4-1-0.5-1.6-0.5c-0.6,0-1.2,0.2-1.7,0.6c-0.5,0.4-0.8,0.9-0.9,1.5h5
			C293.8,61.5,293.6,61,293.2,60.7z"/>
		<path fill="#606060" d="M302.5,62.7V69h-3.1V57.7h3.1V59c1-1,2-1.4,3.2-1.4s2.2,0.4,3,1.3c0.8,0.8,1.2,2,1.2,3.4V69h-3.2v-6.4
			c0-1.7-0.6-2.6-1.9-2.6c-0.6,0-1.2,0.2-1.6,0.7C302.8,61.1,302.5,61.8,302.5,62.7z"/>
		<path fill="#606060" d="M316.4,60V65c0,0.4,0.1,0.8,0.3,1c0.2,0.2,0.5,0.4,0.8,0.4c0.6,0,1.1-0.3,1.5-0.8l1.2,2.2
			c-1,0.9-2,1.3-3.1,1.3c-1.1,0-2-0.4-2.8-1.1c-0.7-0.7-1.1-1.7-1.1-2.9V60h-1.3v-2.3h1.3v-3.4h3.2v3.4h2.7V60H316.4z"/>
		<path fill="#606060" d="M334.5,66.1c1.6,0,2.9-0.6,3.9-1.9l2.1,2.2c-1.7,1.9-3.6,2.8-5.9,2.8c-2.3,0-4.1-0.7-5.6-2.1
			c-1.5-1.4-2.2-3.2-2.2-5.4c0-2.2,0.7-4,2.2-5.4c1.5-1.5,3.3-2.2,5.5-2.2c2.4,0,4.4,0.9,6,2.8l-2,2.3c-1-1.3-2.3-1.9-3.9-1.9
			c-1.2,0-2.3,0.4-3.2,1.2c-0.9,0.8-1.3,1.9-1.3,3.3c0,1.4,0.4,2.5,1.2,3.3S333.3,66.1,334.5,66.1z"/>
		<path fill="#606060" d="M352.6,67.4c-1.3,1.2-2.8,1.8-4.5,1.8s-3.1-0.5-4.3-1.6c-1.1-1.1-1.7-2.5-1.7-4.3s0.6-3.2,1.7-4.2
			s2.5-1.6,4-1.6c1.6,0,2.9,0.5,4,1.4c1.1,0.9,1.6,2.2,1.6,3.9v1.7h-8.2c0.1,0.6,0.4,1.1,1,1.5c0.5,0.4,1.2,0.6,1.8,0.6
			c1.1,0,2-0.4,2.7-1.1L352.6,67.4z M349.5,60.7c-0.4-0.4-1-0.5-1.6-0.5c-0.6,0-1.2,0.2-1.7,0.6c-0.5,0.4-0.8,0.9-0.9,1.5h5
			C350.2,61.5,350,61,349.5,60.7z"/>
		<path fill="#606060" d="M358.9,62.7V69h-3.1V57.7h3.1V59c1-1,2-1.4,3.2-1.4s2.2,0.4,3,1.3c0.8,0.8,1.2,2,1.2,3.4V69h-3.2v-6.4
			c0-1.7-0.6-2.6-1.9-2.6c-0.6,0-1.2,0.2-1.6,0.7C359.1,61.1,358.9,61.8,358.9,62.7z"/>
		<path fill="#606060" d="M372.8,60V65c0,0.4,0.1,0.8,0.3,1c0.2,0.2,0.5,0.4,0.8,0.4c0.6,0,1.1-0.3,1.5-0.8l1.2,2.2
			c-1,0.9-2,1.3-3.1,1.3c-1.1,0-2-0.4-2.8-1.1c-0.7-0.7-1.1-1.7-1.1-2.9V60h-1.3v-2.3h1.3v-3.4h3.2v3.4h2.7V60H372.8z"/>
		<path fill="#606060" d="M388,67.4c-1.3,1.2-2.8,1.8-4.5,1.8s-3.1-0.5-4.3-1.6c-1.1-1.1-1.7-2.5-1.7-4.3s0.6-3.2,1.7-4.2
			s2.5-1.6,4-1.6c1.6,0,2.9,0.5,4,1.4c1.1,0.9,1.6,2.2,1.6,3.9v1.7h-8.2c0.1,0.6,0.4,1.1,1,1.5c0.5,0.4,1.2,0.6,1.8,0.6
			c1.1,0,2-0.4,2.7-1.1L388,67.4z M385,60.7c-0.4-0.4-1-0.5-1.6-0.5c-0.6,0-1.2,0.2-1.7,0.6c-0.5,0.4-0.8,0.9-0.9,1.5h5
			C385.7,61.5,385.4,61,385,60.7z"/>
		<path fill="#606060" d="M397.2,60.5c-0.9,0-1.6,0.3-2.1,1s-0.7,1.5-0.7,2.6V69h-3.1V57.7h3.1v1.5c0.4-0.5,0.9-0.9,1.5-1.2
			c0.6-0.3,1.2-0.5,1.9-0.5l0,3H397.2z"/>
	</g>
</g>
</svg>
